<?xml version="1.0" encoding="utf-8"?>
<!-- Generator: Adobe Illustrator 26.0.1, SVG Export Plug-In . SVG Version: 6.00 Build 0)  -->
<svg version="1.1" id="Layer_1" xmlns="http://www.w3.org/2000/svg" xmlns:xlink="http://www.w3.org/1999/xlink" x="0px" y="0px"
	 viewBox="0 0 67 77.3" style="enable-background:new 0 0 67 77.3;" xml:space="preserve">
<style type="text/css">
	.st0{fill:#2152FF;}
</style>
<path class="st0" d="M31.8,10C15.2,10,2,23.2,2,39.8s13.2,29.8,29.8,29.8s29.8-13.2,29.8-29.8S48.3,10,31.8,10z M31.8,14.8
	c2.6,0,5.1,0.3,7.3,1l-7.3,17.9l-7.3-17.9C26.6,15.1,29.1,14.8,31.8,14.8z M20,17.6l3,7.1H11.6C13.7,21.9,16.7,19.3,20,17.6z
	 M8.8,29.5h16l3.3,8.1H6.6C7.1,34.6,7.8,31.8,8.8,29.5z M8.8,50c-1.2-2.5-2-5.3-2.1-8.1h21.5L24.8,50C24.8,50,8.8,50,8.8,50z
	 M20,61.9c-3.3-1.8-6.1-4.1-8.4-7.1H23L20,61.9z M31.8,64.7c-2.6,0-5.1-0.3-7.3-1l19-46.3c7.9,4.1,13.2,12.4,13.2,22.2
	C56.7,53.7,45.7,64.7,31.8,64.7z"/>
</svg>
